<?xml version="1.0" encoding="UTF-8"?>
<svg id="attention" xmlns="http://www.w3.org/2000/svg" version="1.1" viewBox="0 0 20 20">
  <!-- Generator: Adobe Illustrator 29.7.1, SVG Export Plug-In . SVG Version: 2.1.1 Build 8)  -->
  <defs>
    <style>
      .st0 {
        fill-rule: evenodd;
      }

      .st0, .st1 {
        fill: red;
      }
    </style>
  </defs>
  <path class="st1" d="M10,20h0c-1.3,0-2.6-.3-3.8-.8-1.2-.5-2.3-1.2-3.2-2.2-.9-.9-1.7-2-2.2-3.2C.3,12.6,0,11.3,0,10c0-1.3.3-2.6.8-3.8.5-1.2,1.2-2.3,2.2-3.2.9-.9,2-1.7,3.2-2.2,1.2-.5,2.5-.8,3.8-.8,0,0,0,0,0,0,1.3,0,2.6.3,3.8.8,1.2.5,2.3,1.2,3.2,2.2.9.9,1.7,2,2.2,3.2.5,1.2.8,2.5.8,3.8,0,1.3-.3,2.6-.8,3.8-.5,1.2-1.2,2.3-2.2,3.2-.9.9-2,1.7-3.2,2.2-1.2.5-2.5.8-3.8.8ZM10,18s0,0,0,0c1,0,2.1-.2,3-.6,1-.4,1.8-1,2.6-1.7.7-.7,1.3-1.6,1.7-2.6.4-1,.6-2,.6-3.1,0-1.1-.2-2.1-.6-3.1-.4-1-1-1.8-1.7-2.6-.7-.7-1.6-1.3-2.6-1.7-1-.4-2-.6-3.1-.6h0c-1.1,0-2.1.2-3.1.6-1,.4-1.8,1-2.6,1.7-.7.7-1.3,1.6-1.7,2.6-.4,1-.6,2-.6,3.1,0,1.1.2,2.1.6,3.1.4,1,1,1.8,1.7,2.6.7.7,1.6,1.3,2.6,1.7,1,.4,2,.6,3,.6h0Z"/>
  <path id="attention_x5F_point" class="st0" d="M10,15.9c.3,0,.6-.1.8-.3s.3-.5.3-.8-.1-.6-.3-.8-.5-.3-.8-.3-.6.1-.8.3c-.2.2-.3.5-.3.8s.1.6.3.8c.2.2.5.3.8.3Z"/>
  <path class="st1" d="M10,12.8c-.6,0-1-.4-1-1v-7.2c0-.6.4-1,1-1s1,.4,1,1v7.2c0,.6-.4,1-1,1Z"/>
</svg>