<?xml version="1.0" encoding="UTF-8"?>
<svg id="Calque_2" data-name="Calque 2" xmlns="http://www.w3.org/2000/svg" viewBox="0 0 462.33 346.37">
  <defs>
    <style>
      .cls-1 {
        fill: #271d43;
        stroke-width: 0px;
      }
    </style>
  </defs>
  <g id="Calque_1-2" data-name="Calque 1">
    <g>
      <path class="cls-1" d="M330.53,162.28c12.46.83,27.11,2.98,43.02,7.72,40.32,12.02,67.95,34.51,83.27,49.39,1.01.67,3.06,1.85,4.35,1.09,1.65-.97,1.14-4.55.94-5.91-.76-5.38-11.56-34.42-58.58-60.57-10.11-5.62-23.33-12.76-26.56-25.31-.31-2.44-.21-4.22.11-7.19,5.04.07,49.13,0,49.13,0,2.26-.27,4.27-.43,4.78-3.14.68-2.8-4.19-6.24-14.03-12.69-16.2-10.62-17.85-11.04-21.7-14.22-8.91-7.36-13.53-15.34-15.5-20.69C368.61,46.84,331.19-.49,316.93,0c-2.79.93-4.21,3.54-4.63,4.44-2.45,4.47,40.64,40.34,39.4,52.46.81,2.06,1.97,5.76,1.77,10.49-.19,4.54-1.54,8.02-2.48,9.99-4.44-.24-12.81-2.81-24.02-8.36-10.43-5.17-18.59-10.86-24.38-15.73-3.01-2.1-6.7-1.94-8.74.04-1.7,1.65-1.69,4.01-1.68,4.58-2.34,8.42,91.07,53.72,38.74,95.24-4.13,3.42-3.94,8.94-.38,9.12Z"/>
      <path class="cls-1" d="M1.06,341.45S222.14,51.04,444.43,226.6c2.56,1.54-.03,6.43-3.52,3.96-2.83-.92-179.88-134.48-435.87,114.85-3.43,2.8-6.81-1.1-3.97-3.96Z"/>
    </g>
  </g>
</svg>