<?xml version="1.0" encoding="UTF-8"?><svg xmlns="http://www.w3.org/2000/svg" id="Calque_2" data-name="Calque 2" viewBox="0 0 462 346"><defs><style>.cls-1 {
        fill: #271d43;
        stroke-width: 0px;
      }</style></defs><g id="Calque_1-2" data-name="Calque 1"><path d="M331 162a196 196 0 0 1 126 57c1 1 3 2 4 1 2 0 1-4 1-5-1-6-11-35-58-61-11-6-24-13-27-25v-8l49 1c2-1 4-1 5-4 1-2-4-6-14-12-16-11-18-11-22-15-9-7-13-15-15-20-11-24-49-71-63-71-3 1-4 4-5 4-2 5 41 41 40 53a26 26 0 0 1-1 20c-4 0-13-2-24-8-10-5-19-11-24-16-3-2-7-2-9 0s-2 4-2 5c-2 8 91 54 39 95-4 4-4 9 0 9Z" class="cls-1"/><path d="M1 341S222 51 444 227c3 1 0 6-3 4-3-1-180-135-436 114-3 3-7-1-4-4Z" class="cls-1"/></g></svg>