<?xml version="1.0" encoding="UTF-8"?>
<svg id="Calque_2" data-name="Calque 2" xmlns="http://www.w3.org/2000/svg" viewBox="0 0 463.93 445.77">
  <defs>
    <style>
      .cls-1 {
        fill: #000;
      }

      .cls-1, .cls-2 {
        stroke-width: 0px;
      }

      .cls-2 {
        fill: #271d43;
      }
    </style>
  </defs>
  <g id="Calque_1-2" data-name="Calque 1">
    <g>
      <g>
        <path class="cls-1" d="M50.79,399.49c-4.51.58-4.8,1.02-4.8,5.31v6.11c0,2.55.07,4.95.44,6.91-4.51,1.02-10.41,2.62-16.52,2.62-16.52,0-26.56-10.26-26.56-24.89,0-15.35,12.52-24.52,27.07-24.52,7.42,0,12.88,1.46,15.14,1.82.15,2.69.51,7.13,1.09,11.72l-2.18.44c-1.75-6.19-3.86-8.81-8.44-10.33-1.67-.58-4.66-.95-6.77-.95-11.13,0-18.34,7.64-18.34,20.96,0,11.57,5.97,23.07,20.08,23.07,2.47,0,4.73-.51,6.19-1.24,1.53-.87,2.47-1.67,2.47-4.66v-5.97c0-5.31-.58-5.89-7.57-6.4v-2.11h18.7v2.11Z"/>
        <path class="cls-1" d="M79.24,420.23c-1.09,0-2.69-.58-3.42-1.38-.95-.95-1.38-1.96-1.75-3.27-2.91,1.96-6.48,4.66-8.73,4.66-5.17,0-8.88-4.29-8.88-8.95,0-3.57,1.96-5.89,5.97-7.28,4.44-1.53,9.9-3.42,11.5-4.73v-1.46c0-5.17-2.62-8.15-6.4-8.15-1.67,0-2.69.8-3.42,1.67-.8,1.02-1.31,2.62-1.96,4.73-.36,1.16-1.02,1.67-2.11,1.67-1.38,0-3.2-1.46-3.2-3.2,0-1.02.95-1.89,2.4-2.91,2.11-1.53,6.33-4.22,10.48-5.09,2.18,0,4.44.66,6.11,1.96,2.55,2.18,3.71,4.66,3.71,8.44v14.04c0,3.35,1.24,4.37,2.55,4.37.87,0,1.82-.36,2.62-.8l.73,2.04-6.19,3.64ZM73.93,401.82c-1.6.8-5.09,2.33-6.77,3.06-2.77,1.24-4.44,2.62-4.44,5.31,0,3.86,2.91,5.6,5.24,5.6,1.89,0,4.51-1.17,5.97-2.62v-11.35Z"/>
        <path class="cls-1" d="M105.22,419.36h-16.74v-2.04c4.58-.44,5.02-.8,5.02-5.53v-15.14c0-4.8-.29-5.02-4.51-5.53v-1.82c3.57-.58,6.84-1.46,10.26-2.98v8c2.55-3.78,5.6-7.79,9.24-7.79,2.69,0,4.22,1.67,4.22,3.49,0,1.67-1.16,3.27-2.47,4-.73.44-1.31.36-1.89-.15-1.09-1.09-1.96-1.82-3.27-1.82-1.53,0-4.22,2.26-5.82,5.97v13.68c0,4.8.36,5.17,5.97,5.6v2.04Z"/>
        <path class="cls-1" d="M118.32,382.25c3.35-1.46,5.68-3.64,5.68-6.11s-2.47-3.42-4.8-3.86c-.51-.07-1.02-1.09-1.02-2.04,0-1.96,1.53-3.27,3.71-3.27,3.2,0,6.4,2.62,6.4,7.42,0,5.17-4.51,8.59-9.1,9.9l-.87-2.04Z"/>
        <path class="cls-1" d="M157.33,371.04c12.44,0,23.58,9.53,23.58,24.01,0,15.65-10.62,25.4-24.01,25.4s-24.16-10.62-24.16-24.3,9.24-25.11,24.6-25.11ZM155.87,373.73c-8.15,0-15.57,6.84-15.57,20.45s7.42,23.5,17.76,23.5c8.81,0,15.43-6.55,15.43-20.59,0-15.28-8.08-23.36-17.61-23.36Z"/>
        <path class="cls-1" d="M252.07,399.49c-4.51.58-4.8,1.02-4.8,5.31v6.11c0,2.55.07,4.95.44,6.91-4.51,1.02-10.41,2.62-16.52,2.62-16.52,0-26.56-10.26-26.56-24.89,0-15.35,12.52-24.52,27.07-24.52,7.42,0,12.88,1.46,15.14,1.82.15,2.69.51,7.13,1.09,11.72l-2.18.44c-1.75-6.19-3.86-8.81-8.44-10.33-1.67-.58-4.66-.95-6.77-.95-11.13,0-18.34,7.64-18.34,20.96,0,11.57,5.97,23.07,20.08,23.07,2.47,0,4.73-.51,6.19-1.24,1.53-.87,2.47-1.67,2.47-4.66v-5.97c0-5.31-.58-5.89-7.57-6.4v-2.11h18.7v2.11Z"/>
        <path class="cls-1" d="M280.52,420.23c-1.09,0-2.69-.58-3.42-1.38-.95-.95-1.38-1.96-1.75-3.27-2.91,1.96-6.48,4.66-8.73,4.66-5.17,0-8.88-4.29-8.88-8.95,0-3.57,1.96-5.89,5.97-7.28,4.44-1.53,9.9-3.42,11.5-4.73v-1.46c0-5.17-2.62-8.15-6.4-8.15-1.67,0-2.69.8-3.42,1.67-.8,1.02-1.31,2.62-1.96,4.73-.36,1.16-1.02,1.67-2.11,1.67-1.38,0-3.2-1.46-3.2-3.2,0-1.02.95-1.89,2.4-2.91,2.11-1.53,6.33-4.22,10.48-5.09,2.18,0,4.44.66,6.11,1.96,2.55,2.18,3.71,4.66,3.71,8.44v14.04c0,3.35,1.24,4.37,2.55,4.37.87,0,1.82-.36,2.62-.8l.73,2.04-6.18,3.64ZM275.21,401.82c-1.6.8-5.09,2.33-6.77,3.06-2.77,1.24-4.44,2.62-4.44,5.31,0,3.86,2.91,5.6,5.24,5.6,1.89,0,4.51-1.17,5.97-2.62v-11.35Z"/>
        <path class="cls-1" d="M317.49,410.04c-.95,2.84-2.4,6.99-3.13,9.31h-24.45l-.44-1.16c6.33-9.17,12.52-18.85,18.48-28.23h-7.06c-5.17,0-6.04.8-8.88,7.06l-2.04-.66c.8-2.77,1.75-7.28,2.26-10.48h1.6c.44,1.09,1.38,1.53,4.08,1.53h17.17l.44,1.09c-5.75,8.73-12.15,18.63-18.19,28.31h7.79c5.53,0,7.2-1.46,10.48-7.57l1.89.8Z"/>
        <path class="cls-1" d="M347.32,413.17c-4.66,5.82-9.75,7.06-12.08,7.06-8.88,0-14.26-7.28-14.26-15.65,0-4.95,1.75-9.53,4.73-12.73,3.06-3.42,7.06-5.31,10.84-5.31,6.33,0,11.13,5.46,11.13,11.28-.07,1.46-.29,2.11-1.46,2.4-1.46.29-10.77.95-19.43,1.24-.22,9.75,5.75,13.75,10.92,13.75,2.98,0,5.75-1.24,8.44-3.71l1.16,1.67ZM334.81,389.31c-3.35,0-6.62,3.13-7.64,9.02,4.08,0,8.15,0,12.44-.22,1.31,0,1.75-.36,1.75-1.46.07-3.86-2.47-7.35-6.55-7.35Z"/>
        <path class="cls-1" d="M350.96,419.36v-2.04c4.66-.44,5.24-.8,5.24-5.6v-34.86c0-4.44-.36-4.88-5.02-5.46v-1.89c3.93-.44,8.44-1.6,10.77-2.47v44.68c0,4.8.44,5.17,5.17,5.6v2.04h-16.16Z"/>
        <path class="cls-1" d="M370.32,419.36v-2.04c4.66-.44,5.24-.8,5.24-5.6v-34.86c0-4.44-.36-4.88-5.02-5.46v-1.89c3.93-.44,8.44-1.6,10.77-2.47v44.68c0,4.8.44,5.17,5.17,5.6v2.04h-16.16Z"/>
        <path class="cls-1" d="M416.74,413.17c-4.66,5.82-9.75,7.06-12.08,7.06-8.88,0-14.26-7.28-14.26-15.65,0-4.95,1.75-9.53,4.73-12.73,3.06-3.42,7.06-5.31,10.84-5.31,6.33,0,11.13,5.46,11.13,11.28-.07,1.46-.29,2.11-1.46,2.4-1.46.29-10.77.95-19.43,1.24-.22,9.75,5.75,13.75,10.92,13.75,2.98,0,5.75-1.24,8.44-3.71l1.16,1.67ZM404.23,389.31c-3.35,0-6.62,3.13-7.64,9.02,4.08,0,8.15,0,12.44-.22,1.31,0,1.75-.36,1.75-1.46.07-3.86-2.47-7.35-6.55-7.35Z"/>
        <path class="cls-1" d="M440.47,396.07c-1.31-4.22-3.2-7.13-7.64-7.13-2.55,0-4.51,1.82-4.51,4.73,0,3.13,2.11,4.58,6.19,6.48,6.26,2.98,9.39,5.17,9.39,9.97,0,6.69-6.11,10.11-11.86,10.11-3.78,0-7.13-1.16-8.66-2.04-.36-2.11-1.02-6.11-1.31-8.51l2.11-.36c1.31,4.66,3.86,8.44,8.95,8.44,2.76,0,5.09-1.89,5.09-4.95,0-3.28-1.96-4.95-5.82-6.84-5.09-2.47-9.24-4.8-9.24-10.04s4.51-9.39,11.35-9.39c3.06,0,5.53.73,6.99.95.22,1.75.73,6.33,1.09,8.08l-2.11.51Z"/>
      </g>
      <path class="cls-2" d="M332.13,162.28c12.46.83,27.11,2.98,43.02,7.72,40.32,12.02,67.95,34.51,83.27,49.39,1.01.67,3.06,1.85,4.35,1.09,1.65-.97,1.14-4.55.94-5.91-.76-5.38-11.56-34.42-58.58-60.57-10.11-5.62-23.33-12.76-26.56-25.31-.31-2.44-.21-4.22.11-7.19,5.04.07,49.13,0,49.13,0,2.26-.27,4.27-.43,4.78-3.14.68-2.8-4.19-6.24-14.03-12.69-16.2-10.62-17.85-11.04-21.7-14.22-8.91-7.36-13.53-15.34-15.5-20.69C370.2,46.84,332.79-.49,318.52,0c-2.79.93-4.21,3.54-4.63,4.44-2.45,4.47,40.64,40.34,39.4,52.46.81,2.06,1.97,5.76,1.77,10.49-.19,4.54-1.54,8.02-2.48,9.99-4.44-.24-12.81-2.81-24.02-8.36-10.43-5.17-18.59-10.86-24.38-15.73-3.01-2.1-6.7-1.94-8.74.04-1.7,1.65-1.69,4.01-1.68,4.58-2.34,8.42,91.07,53.72,38.74,95.24-4.13,3.42-3.94,8.94-.38,9.12Z"/>
      <path class="cls-2" d="M2.66,341.45S223.74,51.04,446.02,226.6c2.56,1.54-.03,6.43-3.52,3.96-2.83-.92-179.88-134.48-435.87,114.85-3.43,2.8-6.81-1.1-3.97-3.96Z"/>
    </g>
  </g>
</svg>